<svg width="70" height="52" viewBox="0 0 70 52" fill="none" xmlns="http://www.w3.org/2000/svg">
<path d="M14.6774 0H70L54.1935 52H0L14.6774 0Z" fill="#EA5A1A"/>
<path d="M42.04 14H50.132L45.592 26H37.5L42.04 14Z" fill="white"/>
<path d="M22.3254 28.8817H27H30.5922L26.092 40.9918H18L22.3254 28.8817Z" fill="white"/>
<path d="M27.0133 14H35.1053L33.7875 17.2622H25.6956L27.0133 14Z" fill="white"/>
<path d="M25.832 39L42 39L41.031 41L25 41L25.832 39Z" fill="white"/>
<path d="M23.2668 26H45.5911L44.7716 28H22.5911L23.2668 26Z" fill="white"/>
<path d="M27.9052 11H51.3421L50.5156 13.129H27.1956L27.9052 11Z" fill="white"/>
</svg>
