<svg width="52" height="54" viewBox="0 0 52 54" fill="none" xmlns="http://www.w3.org/2000/svg">
<path d="M26.7633 0H30.6774L12.5915 53.9355H8.67743L26.7633 0Z" fill="#EA5A1A"/>
<path d="M24.379 0H25.7097L7.87904 53.9355H6.54839L24.379 0Z" fill="#EA5A1A"/>
<path d="M21.9597 0H23.2903L5.45968 53.9355H4.12904L21.9597 0Z" fill="#EA5A1A"/>
<path d="M19.7915 0H20.871L2.78918 53.9355H1.70967L19.7915 0Z" fill="#EA5A1A"/>
<path d="M17.9168 0H18.4516L0.534829 53.9355H0L17.9168 0Z" fill="#EA5A1A"/>
<path d="M40.5953 0H48.4194L39.9208 24.8387H32.0968L40.5953 0Z" fill="#EA5A1A"/>
<path d="M43.8757 24.129H51.9677L40.8985 53.9355H32.8065L43.8757 24.129Z" fill="#EA5A1A"/>
<path d="M30.0216 0H41.3226L40.7117 2.12903H29.2581L30.0216 0Z" fill="#EA5A1A"/>
<path d="M22.314 24.129H45.5806L44.323 26.2581H20.7419L22.314 24.129Z" fill="#EA5A1A"/>
<path d="M12.1102 51.8064H35.6452L35.2807 53.9355H11.5161L12.1102 51.8064Z" fill="#EA5A1A"/>
</svg>
