<svg id="Слой_4" data-name="Слой 4" xmlns="http://www.w3.org/2000/svg" xmlns:xlink="http://www.w3.org/1999/xlink" viewBox="0 0 2694.5895 1226.1732"><defs><style>.cls-1,.cls-4,.cls-7{fill:none;}.cls-2{clip-path:url(#clip-path);}.cls-3{fill:url(#Безымянный_градиент_29);}.cls-4,.cls-7{stroke:#3fb8b6;stroke-miterlimit:10;stroke-width:4px;}.cls-5{clip-path:url(#clip-path-2);}.cls-6{fill:#1f1c31;}.cls-7{opacity:0.75;}.cls-8{fill:url(#Безымянный_градиент_35);}</style><clipPath id="clip-path" transform="translate(752.0191 162.1164)"><rect class="cls-1" width="1190.5511" height="841.8898"/></clipPath><linearGradient id="Безымянный_градиент_29" x1="1347.2947" y1="157.5869" x2="1347.2947" y2="1004.0063" gradientUnits="userSpaceOnUse"><stop offset="0.1637" stop-color="#684292"/><stop offset="0.2415" stop-color="#624090"/><stop offset="1" stop-color="#2a3282"/></linearGradient><clipPath id="clip-path-2" transform="translate(752.0191 162.1164)"><rect class="cls-1" y="470.9939" width="1190.5511" height="370.8959"/></clipPath><linearGradient id="Безымянный_градиент_35" x1="1347.2947" y1="633.1104" x2="1347.2947" y2="1004.542" gradientUnits="userSpaceOnUse"><stop offset="0" stop-color="#1f1c31" stop-opacity="0"/><stop offset="0.7876" stop-color="#1f1c31"/></linearGradient></defs><g class="cls-2"><rect class="cls-3" x="752.0191" y="157.5869" width="1190.5511" height="846.4194"/><path class="cls-4" d="M182.917-.7143l361.09,395.315a75.4586,75.4586,0,0,1,45.43-19.782L543.5643-159.9048C404.9842-148.2154,279.5863-89.9591,182.917-.7143Z" transform="translate(752.0191 162.1164)"/><path class="cls-4" d="M145.3881,37.14A612.2135,612.2135,0,0,0-12.4036,399.5212l531.8715,46.2881a76.135,76.135,0,0,1,19.8064-46.4361Z" transform="translate(752.0191 162.1164)"/><path class="cls-4" d="M183.85,903.3241c96.9485,89.1748,222.6256,147.2637,361.4812,158.5773L590.63,527.1019a75.189,75.189,0,0,1-44.2165-17.7145Z" transform="translate(752.0191 162.1164)"/><path class="cls-4" d="M1008.01-.2021C911.1464-89.8429,785.3418-148.3588,646.2792-159.9569L602.4672,374.91a75.3506,75.3506,0,0,1,45.6514,21.3586Z" transform="translate(752.0191 162.1164)"/><path class="cls-4" d="M652.5961,401.068a76.1757,76.1757,0,0,1,18.35,45.0518L1202.8248,399.79A612.1982,612.1982,0,0,0,1045.1829,37.3259Z" transform="translate(752.0191 162.1164)"/><path class="cls-4" d="M651.1617,502.4464l393.8317,362.3322a612.2494,612.2494,0,0,0,157.8843-363.3539L670.5736,460.0459A76.3135,76.3135,0,0,1,651.1617,502.4464Z" transform="translate(752.0191 162.1164)"/><path class="cls-4" d="M646.2135,507.4032A75.2,75.2,0,0,1,602.99,526.91l42.9386,534.9276c138.7392-11.4905,264.2872-69.692,361.1016-158.904Z" transform="translate(752.0191 162.1164)"/><path class="cls-4" d="M519.9,460.6089-12.3542,502.9612A612.2865,612.2865,0,0,0,146.1734,865.5948l394.59-361.4958A76.3633,76.3633,0,0,1,519.9,460.6089Z" transform="translate(752.0191 162.1164)"/><path class="cls-4" d="M554.3231-34.4942a481.474,481.474,0,0,0-286.7225,126.49L543.7842,394.3565a75.24,75.24,0,0,1,45.6542-19.5279Z" transform="translate(752.0191 162.1164)"/><path class="cls-4" d="M237.7615,122.09a486.5043,486.5043,0,0,0-125.429,288.2866l406.7,35.3947a76.06,76.06,0,0,1,19.9635-46.6544Z" transform="translate(752.0191 162.1164)"/><path class="cls-4" d="M268.8739,810.943A481.315,481.315,0,0,0,555.9548,936.48L590.6474,526.9a75.26,75.26,0,0,1-44.3964-17.3357Z" transform="translate(752.0191 162.1164)"/><path class="cls-4" d="M923.6131,92.773a481.4677,481.4677,0,0,0-287.61-127.2764L602.4624,374.9687a75.426,75.426,0,0,1,45.4148,21.5663Z" transform="translate(752.0191 162.1164)"/><path class="cls-4" d="M1078.0891,410.6556A486.4822,486.4822,0,0,0,953.1212,122.6237L652.2965,401.3457a76.0749,76.0749,0,0,1,17.9692,44.8332Z" transform="translate(752.0191 162.1164)"/><path class="cls-4" d="M650.7322,502.0513,952.63,779.8022a486.5278,486.5278,0,0,0,125.4156-288.0814L669.9009,459.9935A76.0553,76.0553,0,0,1,650.7322,502.0513Z" transform="translate(752.0191 162.1164)"/><path class="cls-4" d="M635.8572,936.3659A481.4086,481.4086,0,0,0,922.4094,810.1715L645.84,506.9936a75.2972,75.2972,0,0,1-42.8728,19.6269Z" transform="translate(752.0191 162.1164)"/><path class="cls-4" d="M112.4636,493.0292A486.57,486.57,0,0,0,238.7127,780.8169l301.85-276.5339a76.1476,76.1476,0,0,1-21.0878-43.64Z" transform="translate(752.0191 162.1164)"/><ellipse class="cls-4" cx="1347.2177" cy="615.7071" rx="443.6452" ry="446.0321"/><g class="cls-5"><rect class="cls-6" x="752.0191" y="634.9072" width="1190.5511" height="372.8197"/><line class="cls-7" x1="808.7121" y1="634.9059" x2="0.838" y2="1007.7269"/><line class="cls-7" x1="865.405" y1="634.9055" x2="142.5703" y2="1007.7269"/><line class="cls-7" x1="922.0979" y1="634.9051" x2="284.3026" y2="1007.7269"/><line class="cls-7" x1="978.7908" y1="634.9048" x2="426.0349" y2="1007.7269"/><line class="cls-7" x1="1035.4837" y1="634.9044" x2="567.7672" y2="1007.7269"/><line class="cls-7" x1="1092.1766" y1="634.904" x2="709.4995" y2="1007.7269"/><line class="cls-7" x1="1148.8695" y1="634.9037" x2="851.2317" y2="1007.7269"/><line class="cls-7" x1="1205.5624" y1="634.9033" x2="992.964" y2="1007.7269"/><line class="cls-7" x1="1262.2554" y1="634.9029" x2="1134.6963" y2="1007.7269"/><line class="cls-7" x1="1318.9483" y1="634.9026" x2="1276.4286" y2="1007.7269"/><line class="cls-7" x1="1375.6412" y1="634.9022" x2="1418.1609" y2="1007.7269"/><line class="cls-7" x1="1432.3341" y1="634.9018" x2="1559.8932" y2="1007.7269"/><line class="cls-7" x1="1489.027" y1="634.9015" x2="1701.6254" y2="1007.7269"/><line class="cls-7" x1="1545.7199" y1="634.9011" x2="1843.3577" y2="1007.7269"/><line class="cls-7" x1="1602.4128" y1="634.9007" x2="1985.09" y2="1007.7269"/><line class="cls-7" x1="1659.1058" y1="634.9004" x2="2126.8223" y2="1007.7269"/><line class="cls-7" x1="1715.7987" y1="634.9" x2="2268.5546" y2="1007.7269"/><line class="cls-7" x1="1772.4916" y1="634.8996" x2="2410.2869" y2="1007.7269"/><line class="cls-7" x1="1829.1845" y1="634.8992" x2="2552.0191" y2="1007.7269"/><line class="cls-7" x1="1885.8774" y1="634.8989" x2="2693.7514" y2="1007.7269"/><line class="cls-7" x1="682.8269" y1="634.9072" x2="1992.1759" y2="634.9072"/><line class="cls-7" x1="676.6993" y1="691.9055" x2="1986.0482" y2="691.9055"/><line class="cls-7" x1="676.6985" y1="777.4024" x2="1986.0475" y2="777.4024"/><line class="cls-7" x1="672.6134" y1="895.7101" x2="1981.9624" y2="895.7101"/></g></g><rect class="cls-8" x="752.0191" y="633.1104" width="1190.5511" height="371.4316"/></svg>