<svg width="379" height="984" viewBox="0 0 379 984" fill="none" xmlns="http://www.w3.org/2000/svg">
<rect x="225" y="4" width="150" height="150" stroke="#EA5A1A" stroke-width="8"/>
<rect x="135" y="56" width="116" height="116" stroke="#EA5A1A" stroke-width="8"/>
<rect x="197" y="618" width="116" height="116" stroke="#EA5A1A" stroke-width="8"/>
<rect x="126" y="367" width="83" height="83" stroke="#EA5A1A" stroke-width="8"/>
<rect x="159" y="701" width="62" height="62" stroke="#EA5A1A" stroke-width="8"/>
<rect x="124" y="867" width="62" height="62" stroke="#EA5A1A" stroke-width="8"/>
<rect x="93" y="911" width="48" height="48" stroke="#EA5A1A" stroke-width="8"/>
<rect x="79" y="946" width="34" height="34" stroke="#EA5A1A" stroke-width="8"/>
<rect x="172" y="745" width="62" height="62" stroke="#EA5A1A" stroke-width="8"/>
<rect x="173" y="135" width="97" height="97" stroke="#EA5A1A" stroke-width="8"/>
<rect x="57" y="435" width="97" height="97" stroke="#EA5A1A" stroke-width="8"/>
<rect x="106" y="789" width="97" height="97" stroke="#EA5A1A" stroke-width="8"/>
<rect x="40" y="214" width="97" height="97" stroke="#EA5A1A" stroke-width="8"/>
<rect x="109" y="278" width="142" height="142" stroke="#EA5A1A" stroke-width="8"/>
<rect x="4" y="94" width="150" height="150" stroke="#EA5A1A" stroke-width="8"/>
<rect x="126" y="491" width="150" height="150" stroke="#EA5A1A" stroke-width="8"/>
</svg>
